<?xml version="1.0" encoding="UTF-8"?>
<svg xmlns="http://www.w3.org/2000/svg" xmlns:xlink="http://www.w3.org/1999/xlink" viewBox="0 0 24 24" width="24px" height="24px">
<g id="surface126596736">
<path style=" stroke:none;fill-rule:nonzero;fill:rgb(100%,100%,100%);fill-opacity:1;" d="M 12 3.339844 C 11.742188 3.339844 11.488281 3.441406 11.292969 3.636719 L 5.636719 9.292969 C 5.246094 9.683594 5.246094 10.316406 5.636719 10.707031 L 5.722656 10.792969 C 6.113281 11.183594 6.746094 11.183594 7.136719 10.792969 L 11 6.929688 L 11 20 C 11 20.550781 11.449219 21 12 21 C 12.550781 21 13 20.550781 13 20 L 13 6.929688 L 16.863281 10.792969 C 17.253906 11.183594 17.886719 11.183594 18.277344 10.792969 L 18.363281 10.707031 C 18.753906 10.316406 18.753906 9.683594 18.363281 9.292969 L 12.707031 3.636719 C 12.511719 3.441406 12.257812 3.339844 12 3.339844 Z M 12 3.339844 "/>
</g>
</svg>
